# xmcd
# 
# Track frame offsets:
#     150
#     12057
#     26275
#     44255
#     63542
#     106475
#     124397
#     141290
#     165765
#     185640
#     202975
#     219820
#     237927
#     253985
#     271765
#     282970
#     303472
#     311750
# 
# Disc length: 4361
# 
# Revision: 2
# Processed by: cddbd v1.5.2PL0 Copyright (c) Steve Scherf et al.
# Submitted via: BonkEnc v1.0.15
# 
DISCID=fd110712
DTITLE=Janis Joplin - Star Box Janis Joplin 18 Songs
DYEAR=0
DGENRE=Rock
TTITLE0=Bye, Bye Baby
TTITLE1=Down On Me
TTITLE2=Summertime
TTITLE3=Piece Of My Heart
TTITLE4=Ball And Chain
TTITLE5=Try (Just A Little Bit Harder)
TTITLE6=Maybe
TTITLE7=As Good As You've Been To This World
TTITLE8=Kozmic Blues
TTITLE9=Little Girl Blues
TTITLE10=Move Over
TTITLE11=Cry Baby
TTITLE12=A Woman Left Lonely
TTITLE13=Half Moon
TTITLE14=Buried Alive In The Blues
TTITLE15=Me And Bobby McGee
TTITLE16=Mercedes Benz
TTITLE17=Get It While You Can
EXTD=
EXTT0=
EXTT1=
EXTT2=
EXTT3=
EXTT4=
EXTT5=
EXTT6=
EXTT7=
EXTT8=
EXTT9=
EXTT10=
EXTT11=
EXTT12=
EXTT13=
EXTT14=
EXTT15=
EXTT16=
EXTT17=
PLAYORDER=
